<mxfile host="app.diagrams.net" modified="2023-06-07T03:57:13.539Z" agent="Mozilla/5.0 (X11; Ubuntu; Linux x86_64; rv:109.0) Gecko/20100101 Firefox/113.0" etag="wvUg9BGrSJYI-WMB8sml" version="21.3.7" type="github">
  <diagram name="Page-1" id="M7DkWpAEA0SoGvppIu5o">
    <mxGraphModel dx="1434" dy="692" grid="1" gridSize="10" guides="1" tooltips="1" connect="1" arrows="1" fold="1" page="1" pageScale="1" pageWidth="850" pageHeight="1100" math="0" shadow="0">
      <root>
        <mxCell id="0" />
        <mxCell id="1" parent="0" />
        <mxCell id="xIDI6sqjgz8K7w1ugfOl-2" value="Dev" style="shape=umlActor;verticalLabelPosition=bottom;verticalAlign=top;html=1;outlineConnect=0;" parent="1" vertex="1">
          <mxGeometry x="10" y="220" width="30" height="60" as="geometry" />
        </mxCell>
        <mxCell id="xIDI6sqjgz8K7w1ugfOl-5" value="" style="verticalLabelPosition=bottom;html=1;verticalAlign=top;align=center;strokeColor=none;fillColor=#00BEF2;shape=mxgraph.azure.github_code;pointerEvents=1;" parent="1" vertex="1">
          <mxGeometry x="140" y="135.5" width="50" height="50" as="geometry" />
        </mxCell>
        <mxCell id="xIDI6sqjgz8K7w1ugfOl-6" value="Github" style="text;html=1;strokeColor=none;fillColor=none;align=center;verticalAlign=middle;whiteSpace=wrap;rounded=0;" parent="1" vertex="1">
          <mxGeometry x="135" y="185" width="60" height="30" as="geometry" />
        </mxCell>
        <mxCell id="xIDI6sqjgz8K7w1ugfOl-11" value="" style="whiteSpace=wrap;html=1;aspect=fixed;" parent="1" vertex="1">
          <mxGeometry x="280" y="70.5" width="170" height="170" as="geometry" />
        </mxCell>
        <mxCell id="xIDI6sqjgz8K7w1ugfOl-15" value="" style="endArrow=classic;html=1;rounded=0;exitX=-0.035;exitY=0.529;exitDx=0;exitDy=0;exitPerimeter=0;entryX=1;entryY=0.5;entryDx=0;entryDy=0;entryPerimeter=0;" parent="1" source="xIDI6sqjgz8K7w1ugfOl-11" target="xIDI6sqjgz8K7w1ugfOl-5" edge="1">
          <mxGeometry width="50" height="50" relative="1" as="geometry">
            <mxPoint x="260" y="260" as="sourcePoint" />
            <mxPoint x="190" y="170" as="targetPoint" />
          </mxGeometry>
        </mxCell>
        <mxCell id="xIDI6sqjgz8K7w1ugfOl-16" value="" style="endArrow=classic;html=1;rounded=0;entryX=-0.04;entryY=0.8;entryDx=0;entryDy=0;entryPerimeter=0;" parent="1" source="xIDI6sqjgz8K7w1ugfOl-2" target="xIDI6sqjgz8K7w1ugfOl-5" edge="1">
          <mxGeometry width="50" height="50" relative="1" as="geometry">
            <mxPoint x="160" y="440" as="sourcePoint" />
            <mxPoint x="90" y="360" as="targetPoint" />
          </mxGeometry>
        </mxCell>
        <mxCell id="xIDI6sqjgz8K7w1ugfOl-17" value="&lt;div&gt;Commit&lt;/div&gt;" style="text;html=1;strokeColor=none;fillColor=none;align=center;verticalAlign=middle;whiteSpace=wrap;rounded=0;rotation=-30;" parent="1" vertex="1">
          <mxGeometry x="70" y="210" width="50" height="20" as="geometry" />
        </mxCell>
        <mxCell id="xIDI6sqjgz8K7w1ugfOl-18" value="Pull" style="text;html=1;strokeColor=none;fillColor=none;align=center;verticalAlign=middle;whiteSpace=wrap;rounded=0;rotation=0;" parent="1" vertex="1">
          <mxGeometry x="220" y="165" width="30" height="20" as="geometry" />
        </mxCell>
        <mxCell id="xIDI6sqjgz8K7w1ugfOl-19" value="Jenkins" style="text;html=1;strokeColor=none;fillColor=none;align=center;verticalAlign=middle;whiteSpace=wrap;rounded=0;" parent="1" vertex="1">
          <mxGeometry x="335" y="240.5" width="60" height="30" as="geometry" />
        </mxCell>
        <mxCell id="xIDI6sqjgz8K7w1ugfOl-20" value="&lt;div&gt;Git Clone&lt;br&gt;&lt;/div&gt;&lt;div&gt;Docker Build&lt;/div&gt;" style="text;html=1;strokeColor=none;fillColor=none;align=center;verticalAlign=middle;whiteSpace=wrap;rounded=0;" parent="1" vertex="1">
          <mxGeometry x="325" y="125.5" width="80" height="60" as="geometry" />
        </mxCell>
        <mxCell id="xIDI6sqjgz8K7w1ugfOl-21" value="" style="endArrow=classic;html=1;rounded=0;exitX=1.024;exitY=0.541;exitDx=0;exitDy=0;exitPerimeter=0;entryX=-0.013;entryY=0.525;entryDx=0;entryDy=0;entryPerimeter=0;" parent="1" source="xIDI6sqjgz8K7w1ugfOl-11" target="xIDI6sqjgz8K7w1ugfOl-22" edge="1">
          <mxGeometry width="50" height="50" relative="1" as="geometry">
            <mxPoint x="460" y="260" as="sourcePoint" />
            <mxPoint x="510" y="210" as="targetPoint" />
          </mxGeometry>
        </mxCell>
        <mxCell id="xIDI6sqjgz8K7w1ugfOl-22" value="" style="image;sketch=0;aspect=fixed;html=1;points=[];align=center;fontSize=12;image=img/lib/mscae/Docker.svg;" parent="1" vertex="1">
          <mxGeometry x="560" y="129" width="74.39" height="61" as="geometry" />
        </mxCell>
        <mxCell id="xIDI6sqjgz8K7w1ugfOl-27" value="&lt;div&gt;Push&lt;/div&gt;" style="text;html=1;strokeColor=none;fillColor=none;align=center;verticalAlign=middle;whiteSpace=wrap;rounded=0;" parent="1" vertex="1">
          <mxGeometry x="480.00000000000006" y="160" width="60" height="30" as="geometry" />
        </mxCell>
        <mxCell id="xIDI6sqjgz8K7w1ugfOl-28" value="Docker Hub" style="text;html=1;strokeColor=none;fillColor=none;align=center;verticalAlign=middle;whiteSpace=wrap;rounded=0;" parent="1" vertex="1">
          <mxGeometry x="557.19" y="190" width="80" height="30" as="geometry" />
        </mxCell>
        <mxCell id="PcMC3MuKAwUTo7YgAQ8w-1" value="" style="endArrow=classic;html=1;rounded=0;entryX=0.145;entryY=0;entryDx=0;entryDy=4.35;entryPerimeter=0;" edge="1" parent="1" source="xIDI6sqjgz8K7w1ugfOl-11" target="PcMC3MuKAwUTo7YgAQ8w-2">
          <mxGeometry width="50" height="50" relative="1" as="geometry">
            <mxPoint x="400" y="420" as="sourcePoint" />
            <mxPoint x="480" y="400" as="targetPoint" />
          </mxGeometry>
        </mxCell>
        <mxCell id="PcMC3MuKAwUTo7YgAQ8w-2" value="" style="shape=cylinder3;whiteSpace=wrap;html=1;boundedLbl=1;backgroundOutline=1;size=15;" vertex="1" parent="1">
          <mxGeometry x="557.19" y="360" width="162.81" height="130" as="geometry" />
        </mxCell>
        <mxCell id="PcMC3MuKAwUTo7YgAQ8w-3" value="Docker Swarm" style="text;html=1;strokeColor=none;fillColor=none;align=center;verticalAlign=middle;whiteSpace=wrap;rounded=0;" vertex="1" parent="1">
          <mxGeometry x="588.6" y="490" width="100" height="20" as="geometry" />
        </mxCell>
        <mxCell id="PcMC3MuKAwUTo7YgAQ8w-4" value="Deploy" style="text;html=1;strokeColor=none;fillColor=none;align=center;verticalAlign=middle;whiteSpace=wrap;rounded=0;rotation=45;" vertex="1" parent="1">
          <mxGeometry x="470" y="290" width="60" height="30" as="geometry" />
        </mxCell>
      </root>
    </mxGraphModel>
  </diagram>
</mxfile>
